<mxfile host="app.diagrams.net" agent="Mozilla/5.0 (X11; Linux x86_64) AppleWebKit/537.36 (KHTML, like Gecko) Chrome/129.0.0.0 Safari/537.36" version="24.7.17">
  <diagram name="Page-1" id="DOcl2mCSUGVE-XJjk2ld">
    <mxGraphModel dx="1589" dy="935" grid="1" gridSize="10" guides="1" tooltips="1" connect="1" arrows="1" fold="1" page="1" pageScale="1" pageWidth="850" pageHeight="1100" math="0" shadow="0">
      <root>
        <mxCell id="0" />
        <mxCell id="1" parent="0" />
        <mxCell id="bs4mkbnuTh2UYss63mAq-1" value="" style="dashed=0;outlineConnect=0;html=1;align=center;labelPosition=center;verticalLabelPosition=bottom;verticalAlign=top;shape=mxgraph.weblogos.github" vertex="1" parent="1">
          <mxGeometry x="133.75" y="468.5" width="75" height="75" as="geometry" />
        </mxCell>
        <mxCell id="bs4mkbnuTh2UYss63mAq-2" value="&lt;font style=&quot;font-size: 11px;&quot;&gt;P&lt;/font&gt;&lt;span style=&quot;font-size: 11px; background-color: initial;&quot;&gt;ush event on &#39;&lt;/span&gt;&lt;span style=&quot;font-size: 11px; background-color: initial;&quot;&gt;main&#39;&lt;/span&gt;" style="text;html=1;align=center;verticalAlign=middle;whiteSpace=wrap;rounded=0;fontStyle=1" vertex="1" parent="1">
          <mxGeometry x="123" y="439" width="116.5" height="20" as="geometry" />
        </mxCell>
        <mxCell id="bs4mkbnuTh2UYss63mAq-10" value="" style="edgeStyle=orthogonalEdgeStyle;rounded=0;orthogonalLoop=1;jettySize=auto;html=1;" edge="1" parent="1" source="bs4mkbnuTh2UYss63mAq-3">
          <mxGeometry relative="1" as="geometry">
            <mxPoint x="483.75" y="504.0344827586208" as="targetPoint" />
          </mxGeometry>
        </mxCell>
        <mxCell id="bs4mkbnuTh2UYss63mAq-3" value="" style="sketch=0;html=1;aspect=fixed;strokeColor=none;shadow=0;fillColor=#3B8DF1;verticalAlign=top;labelPosition=center;verticalLabelPosition=bottom;shape=mxgraph.gcp2.play_start" vertex="1" parent="1">
          <mxGeometry x="313.75" y="469" width="70" height="70" as="geometry" />
        </mxCell>
        <mxCell id="bs4mkbnuTh2UYss63mAq-4" style="edgeStyle=orthogonalEdgeStyle;rounded=0;orthogonalLoop=1;jettySize=auto;html=1;entryX=-0.037;entryY=0.531;entryDx=0;entryDy=0;entryPerimeter=0;" edge="1" parent="1" source="bs4mkbnuTh2UYss63mAq-1" target="bs4mkbnuTh2UYss63mAq-3">
          <mxGeometry relative="1" as="geometry" />
        </mxCell>
        <mxCell id="bs4mkbnuTh2UYss63mAq-5" value="&lt;font style=&quot;font-size: 8px;&quot;&gt;Triggering GitHub Action&lt;/font&gt;" style="text;html=1;align=center;verticalAlign=middle;whiteSpace=wrap;rounded=0;fontStyle=1" vertex="1" parent="1">
          <mxGeometry x="206.75" y="479" width="105" height="30" as="geometry" />
        </mxCell>
        <mxCell id="bs4mkbnuTh2UYss63mAq-6" value="YAML" style="text;html=1;align=center;verticalAlign=middle;whiteSpace=wrap;rounded=0;fontStyle=1" vertex="1" parent="1">
          <mxGeometry x="318.75" y="434" width="60" height="30" as="geometry" />
        </mxCell>
        <mxCell id="bs4mkbnuTh2UYss63mAq-11" value="&lt;font face=&quot;Georgia&quot; size=&quot;1&quot; color=&quot;#ffffff&quot;&gt;&lt;b style=&quot;font-size: 15px;&quot;&gt;Azure&lt;/b&gt;&lt;/font&gt;" style="text;html=1;align=center;verticalAlign=middle;whiteSpace=wrap;rounded=0;" vertex="1" parent="1">
          <mxGeometry x="502.54" y="492" width="60" height="30" as="geometry" />
        </mxCell>
        <mxCell id="bs4mkbnuTh2UYss63mAq-12" value="&lt;font style=&quot;font-size: 9px;&quot;&gt;Login to ACR&lt;/font&gt;" style="text;html=1;align=center;verticalAlign=middle;whiteSpace=wrap;rounded=0;fontStyle=1" vertex="1" parent="1">
          <mxGeometry x="393.75" y="479" width="70" height="30" as="geometry" />
        </mxCell>
        <mxCell id="bs4mkbnuTh2UYss63mAq-25" style="edgeStyle=orthogonalEdgeStyle;rounded=0;orthogonalLoop=1;jettySize=auto;html=1;" edge="1" parent="1" source="bs4mkbnuTh2UYss63mAq-13">
          <mxGeometry relative="1" as="geometry">
            <mxPoint x="533.75" y="539" as="targetPoint" />
          </mxGeometry>
        </mxCell>
        <mxCell id="bs4mkbnuTh2UYss63mAq-13" value="" style="image;sketch=0;aspect=fixed;html=1;points=[];align=center;fontSize=12;image=img/lib/mscae/Docker.svg;" vertex="1" parent="1">
          <mxGeometry x="308.75" y="699" width="75" height="61.5" as="geometry" />
        </mxCell>
        <mxCell id="bs4mkbnuTh2UYss63mAq-14" value="Build image" style="text;html=1;align=center;verticalAlign=middle;whiteSpace=wrap;rounded=0;fontStyle=1" vertex="1" parent="1">
          <mxGeometry x="313.75" y="669" width="75" height="30" as="geometry" />
        </mxCell>
        <mxCell id="bs4mkbnuTh2UYss63mAq-24" style="edgeStyle=orthogonalEdgeStyle;rounded=0;orthogonalLoop=1;jettySize=auto;html=1;entryX=0.457;entryY=0.098;entryDx=0;entryDy=0;entryPerimeter=0;" edge="1" parent="1" source="bs4mkbnuTh2UYss63mAq-3" target="bs4mkbnuTh2UYss63mAq-14">
          <mxGeometry relative="1" as="geometry" />
        </mxCell>
        <mxCell id="bs4mkbnuTh2UYss63mAq-26" value="Push to ACR" style="text;html=1;align=center;verticalAlign=middle;resizable=0;points=[];autosize=1;strokeColor=none;fillColor=none;fontStyle=1" vertex="1" parent="1">
          <mxGeometry x="408.75" y="699" width="90" height="30" as="geometry" />
        </mxCell>
        <mxCell id="bs4mkbnuTh2UYss63mAq-34" style="edgeStyle=orthogonalEdgeStyle;rounded=0;orthogonalLoop=1;jettySize=auto;html=1;" edge="1" parent="1">
          <mxGeometry relative="1" as="geometry">
            <mxPoint x="563.75" y="519" as="targetPoint" />
            <mxPoint x="663.75" y="519" as="sourcePoint" />
          </mxGeometry>
        </mxCell>
        <mxCell id="bs4mkbnuTh2UYss63mAq-27" value="" style="image;aspect=fixed;html=1;points=[];align=center;fontSize=12;image=img/lib/azure2/app_services/App_Services.svg;" vertex="1" parent="1">
          <mxGeometry x="663.75" y="477" width="58" height="58" as="geometry" />
        </mxCell>
        <mxCell id="bs4mkbnuTh2UYss63mAq-28" value="" style="image;aspect=fixed;html=1;points=[];align=center;fontSize=12;image=img/lib/azure2/containers/Container_Registries.svg;" vertex="1" parent="1">
          <mxGeometry x="494.75" y="474" width="68" height="61" as="geometry" />
        </mxCell>
        <mxCell id="bs4mkbnuTh2UYss63mAq-29" value="&lt;b&gt;ACR&lt;/b&gt;" style="text;html=1;align=center;verticalAlign=middle;resizable=0;points=[];autosize=1;strokeColor=none;fillColor=none;" vertex="1" parent="1">
          <mxGeometry x="508.75" y="447" width="50" height="30" as="geometry" />
        </mxCell>
        <mxCell id="bs4mkbnuTh2UYss63mAq-30" value="&lt;b&gt;web app&lt;/b&gt;" style="text;html=1;align=center;verticalAlign=middle;resizable=0;points=[];autosize=1;strokeColor=none;fillColor=none;" vertex="1" parent="1">
          <mxGeometry x="657.75" y="447" width="70" height="30" as="geometry" />
        </mxCell>
        <mxCell id="bs4mkbnuTh2UYss63mAq-35" style="edgeStyle=orthogonalEdgeStyle;rounded=0;orthogonalLoop=1;jettySize=auto;html=1;entryX=0;entryY=0.474;entryDx=0;entryDy=0;entryPerimeter=0;" edge="1" parent="1" source="bs4mkbnuTh2UYss63mAq-28" target="bs4mkbnuTh2UYss63mAq-27">
          <mxGeometry relative="1" as="geometry" />
        </mxCell>
        <mxCell id="bs4mkbnuTh2UYss63mAq-36" value="&lt;b&gt;&lt;font style=&quot;font-size: 10px;&quot;&gt;Pulling new images&lt;/font&gt;&lt;/b&gt;" style="text;html=1;align=center;verticalAlign=middle;resizable=0;points=[];autosize=1;strokeColor=none;fillColor=none;" vertex="1" parent="1">
          <mxGeometry x="553.75" y="477" width="120" height="30" as="geometry" />
        </mxCell>
        <mxCell id="bs4mkbnuTh2UYss63mAq-37" value="&lt;font size=&quot;1&quot; style=&quot;&quot;&gt;&lt;b style=&quot;font-size: 28px;&quot;&gt;CI/CD pipeline of PixelPress&lt;/b&gt;&lt;/font&gt;" style="text;html=1;align=center;verticalAlign=middle;whiteSpace=wrap;rounded=0;" vertex="1" parent="1">
          <mxGeometry x="193.75" y="339" width="445" height="90" as="geometry" />
        </mxCell>
      </root>
    </mxGraphModel>
  </diagram>
</mxfile>
